<?xml version="1.0" standalone="no"?>
<!DOCTYPE svg PUBLIC "-//W3C//DTD SVG 20010904//EN"
 "http://www.w3.org/TR/2001/REC-SVG-20010904/DTD/svg10.dtd">
<svg version="1.0" xmlns="http://www.w3.org/2000/svg"
 width="900.000000pt" height="900.000000pt" viewBox="0 0 900.000000 900.000000"
 preserveAspectRatio="xMidYMid meet">
<metadata>
Created by potrace 1.11, written by Peter Selinger 2001-2013
</metadata>
<g transform="translate(0.000000,900.000000) scale(0.100000,-0.100000)"
fill="#000000" stroke="none">
<path d="M2380 6384 c-248 -44 -378 -83 -555 -168 -154 -74 -247 -132 -375
-234 -342 -274 -575 -656 -672 -1102 -20 -92 -22 -134 -23 -345 0 -189 4 -260
18 -335 96 -512 384 -950 817 -1245 105 -72 315 -175 435 -215 239 -78 350
-93 642 -88 186 4 248 9 333 27 227 48 483 155 661 277 147 100 341 277 423
386 l28 38 -99 152 c-55 84 -138 215 -183 291 -46 75 -86 137 -90 137 -4 0
-12 -12 -19 -27 -29 -63 -125 -197 -193 -269 -275 -290 -681 -433 -1073 -379
-467 64 -857 383 -1006 822 -52 155 -64 233 -63 423 0 147 3 190 22 265 58
234 158 418 314 581 215 224 497 360 796 384 120 10 285 -1 396 -26 245 -56
482 -217 710 -485 180 -210 303 -393 621 -919 205 -339 366 -587 486 -746 l84
-112 45 41 c25 23 129 120 232 215 l188 175 -36 46 c-84 110 -316 470 -494
766 -106 176 -235 385 -287 465 -456 696 -905 1057 -1471 1181 -81 18 -136 22
-342 24 -135 2 -256 1 -270 -1z"/>
<path d="M6096 6379 c-307 -47 -644 -194 -881 -384 -118 -95 -325 -307 -325
-333 0 -4 43 -72 95 -152 53 -80 135 -209 182 -287 47 -79 89 -143 92 -143 4
0 18 24 33 53 58 118 212 294 343 391 136 103 369 200 540 226 100 16 284 16
394 0 46 -6 130 -26 186 -45 196 -64 337 -149 489 -295 188 -182 309 -410 358
-675 20 -107 16 -362 -6 -465 -52 -241 -164 -454 -325 -618 -214 -219 -476
-342 -794 -373 -252 -24 -536 40 -712 161 l-47 33 -219 -219 c-121 -120 -219
-224 -219 -231 0 -16 161 -122 281 -183 180 -93 368 -153 556 -180 133 -19
514 -8 638 19 150 33 295 84 440 155 109 54 286 161 305 185 3 3 28 24 55 46
360 285 612 732 681 1205 21 150 15 414 -15 581 -41 234 -156 518 -287 710
-279 410 -669 677 -1163 796 -97 23 -128 26 -361 29 -140 1 -281 -2 -314 -7z"/>
<path d="M6207 5550 c-395 -67 -732 -380 -839 -778 -29 -109 -35 -317 -14
-441 21 -118 81 -273 146 -375 28 -43 50 -79 48 -81 -11 -7 -926 -892 -935
-905 -25 -31 -14 -60 50 -126 40 -41 71 -64 85 -64 25 0 34 8 622 575 l356
343 29 -24 c98 -80 269 -157 421 -190 120 -26 333 -24 447 4 388 97 679 377
783 757 26 91 28 115 28 270 -1 141 -4 183 -22 247 -58 210 -129 334 -277 484
-162 163 -312 248 -524 295 -92 20 -309 25 -404 9z m402 -140 c260 -63 488
-247 610 -493 58 -117 82 -218 88 -368 4 -96 1 -145 -12 -210 -44 -219 -157
-407 -325 -542 -182 -145 -403 -216 -630 -203 -433 25 -784 336 -859 760 -18
100 -13 280 9 376 84 353 391 637 755 696 102 17 255 10 364 -16z"/>
</g>
</svg>
